<svg width="1500" height="2687" viewBox="0 0 1500 2687" fill="none" xmlns="http://www.w3.org/2000/svg">
<g clip-path="url(#clip0_221_3805)">
<rect width="1500" height="2687" fill="white"/>
<path d="M0 0C0 0 1151.5 2.22894e-05 803 0C626 -1.13206e-05 438 198.501 1151.5 500C1865 801.5 1500 1000 1500 1000C1500 1000 1151.5 1238.5 753.5 1184.5C355.5 1130.5 0 1000 0 1000V0Z" fill="url(#paint0_linear_221_3805)"/>
<path d="M0 0C0 0 1151.5 2.22894e-05 803 0C626 -1.13206e-05 438 198.501 1151.5 500C1865 801.5 1500 1000 1500 1000C1500 1000 1151.5 1238.5 753.5 1184.5C355.5 1130.5 0 1000 0 1000V0Z" fill="url(#paint1_linear_221_3805)" fill-opacity="0.2"/>
<circle cx="1202" cy="1328" r="68" fill="url(#paint2_linear_221_3805)"/>
<circle cx="1284.74" cy="1342.74" r="68" transform="rotate(-165.641 1284.74 1342.74)" fill="url(#paint3_linear_221_3805)"/>
<path fill-rule="evenodd" clip-rule="evenodd" d="M303.029 1201.04C328.693 1203.31 353.227 1204.17 377.513 1212.78C411.409 1224.8 460.229 1226.42 471.24 1260.68C482.261 1294.97 438.522 1321.9 423.032 1354.41C410.355 1381.02 410.799 1413.95 388.853 1433.61C365.846 1454.22 333.887 1462.97 303.029 1461.91C272.82 1460.88 246.651 1444.45 221.37 1427.87C194.771 1410.43 161.885 1394.7 153.672 1363.95C145.524 1333.45 169.2 1305 180.694 1275.6C191.349 1248.35 193.315 1213.88 218.291 1198.66C243.03 1183.58 274.176 1198.48 303.029 1201.04Z" fill="#91E8C8"/>
<path fill-rule="evenodd" clip-rule="evenodd" d="M1645.79 1385.75C1765.96 1390.74 1888.67 1431.15 1931.46 1543.5C1981.07 1673.76 1956.83 1827.1 1846.23 1912C1726.78 2003.7 1561.36 2008.45 1437.67 1922.56C1305.32 1830.66 1218.16 1666.5 1276.39 1516.31C1328.56 1381.74 1501.52 1379.77 1645.79 1385.75Z" fill="#40D59F"/>
<path fill-rule="evenodd" clip-rule="evenodd" d="M187.694 1093.51L151.504 1131.85C115.313 1170.19 42.9313 1246.87 60.3049 1313.79C77.6786 1380.7 184.808 1437.84 192.208 1505.84C199.609 1573.83 107.282 1652.68 104.71 1721.77C102.138 1790.85 189.321 1850.16 246.586 1912.73C303.851 1975.3 331.198 2041.13 344.871 2074.04L358.544 2106.95L-179.987 2165.57L-183.688 2131.57C-187.388 2097.57 -194.789 2029.57 -202.19 1961.58C-209.591 1893.58 -216.992 1825.58 -224.392 1757.59C-231.793 1689.59 -239.194 1621.59 -246.595 1553.6C-253.996 1485.6 -261.397 1417.6 -268.798 1349.61C-276.198 1281.61 -283.599 1213.61 -287.3 1179.61L-291 1145.61L187.694 1093.51Z" fill="#8AE6C4"/>
</g>
<defs>
<linearGradient id="paint0_linear_221_3805" x1="100.5" y1="468.001" x2="1586" y2="493.501" gradientUnits="userSpaceOnUse">
<stop stop-color="#34D399"/>
<stop offset="1" stop-color="#34D399" stop-opacity="0"/>
</linearGradient>
<linearGradient id="paint1_linear_221_3805" x1="1579.5" y1="468.001" x2="83" y2="468.001" gradientUnits="userSpaceOnUse">
<stop stop-color="#A7F3D0"/>
<stop offset="1" stop-color="#A7F3D0" stop-opacity="0"/>
</linearGradient>
<linearGradient id="paint2_linear_221_3805" x1="1202" y1="1260" x2="1202" y2="1396" gradientUnits="userSpaceOnUse">
<stop stop-color="#60DDAE"/>
<stop offset="1" stop-color="#60DDAE" stop-opacity="0"/>
</linearGradient>
<linearGradient id="paint3_linear_221_3805" x1="1284.74" y1="1274.74" x2="1284.74" y2="1410.74" gradientUnits="userSpaceOnUse">
<stop stop-color="#60DDAE"/>
<stop offset="1" stop-color="#60DDAE" stop-opacity="0"/>
</linearGradient>
<clipPath id="clip0_221_3805">
<rect width="1500" height="2687" fill="white"/>
</clipPath>
</defs>
</svg>
