<svg width="1500" height="1000" viewBox="0 0 1500 1000" fill="none" xmlns="http://www.w3.org/2000/svg">
<g clip-path="url(#clip0_223_4139)">
<rect width="1500" height="1000" fill="white"/>
<path d="M0 -1000C0 -1000 1151.5 -1000 803 -1000C626 -1000 438 -801.499 1151.5 -500C1865 -198.5 1500 0.000976562 1500 0.000976562C1500 0.000976562 1151.5 238.5 753.5 184.5C355.5 130.5 0 0.000976562 0 0.000976562V-1000Z" fill="url(#paint0_linear_223_4139)"/>
<path d="M0 -1000C0 -1000 1151.5 -1000 803 -1000C626 -1000 438 -801.499 1151.5 -500C1865 -198.5 1500 0.000976562 1500 0.000976562C1500 0.000976562 1151.5 238.5 753.5 184.5C355.5 130.5 0 0.000976562 0 0.000976562V-1000Z" fill="url(#paint1_linear_223_4139)" fill-opacity="0.2"/>
<path fill-rule="evenodd" clip-rule="evenodd" d="M303.029 201.036C328.693 203.312 353.227 204.168 377.513 212.78C411.409 224.799 460.229 226.421 471.24 260.683C482.261 294.972 438.522 321.895 423.032 354.408C410.355 381.017 410.799 413.948 388.853 433.609C365.846 454.22 333.887 462.972 303.029 461.915C272.82 460.88 246.651 444.453 221.37 427.872C194.771 410.426 161.885 394.701 153.672 363.953C145.524 333.453 169.2 305.004 180.694 275.602C191.349 248.346 193.315 213.879 218.291 198.655C243.03 183.576 274.176 198.476 303.029 201.036Z" fill="#91E8C8"/>
<circle cx="1202" cy="328" r="68" fill="url(#paint2_linear_223_4139)"/>
<circle cx="1284.74" cy="342.74" r="68" transform="rotate(-165.641 1284.74 342.74)" fill="url(#paint3_linear_223_4139)"/>
<path fill-rule="evenodd" clip-rule="evenodd" d="M1645.79 385.754C1765.96 390.741 1888.67 431.15 1931.46 543.496C1981.07 673.761 1956.83 827.098 1846.23 912.002C1726.78 1003.7 1561.36 1008.45 1437.67 922.562C1305.32 830.66 1218.16 666.496 1276.39 516.308C1328.56 381.743 1501.52 379.766 1645.79 385.754Z" fill="#40D59F"/>
<path fill-rule="evenodd" clip-rule="evenodd" d="M187.694 93.5127L151.504 131.853C115.313 170.193 42.9313 246.874 60.3049 313.785C77.6786 380.697 184.808 437.839 192.208 505.836C199.609 573.833 107.282 652.684 104.71 721.767C102.138 790.849 189.321 850.162 246.586 912.732C303.851 975.302 331.198 1041.13 344.871 1074.04L358.544 1106.95L-179.987 1165.57L-183.688 1131.57C-187.388 1097.57 -194.789 1029.57 -202.19 961.577C-209.591 893.58 -216.992 825.583 -224.392 757.586C-231.793 689.59 -239.194 621.593 -246.595 553.596C-253.996 485.599 -261.397 417.602 -268.798 349.605C-276.198 281.608 -283.599 213.611 -287.3 179.613L-291 145.614L187.694 93.5127Z" fill="#8AE6C4"/>
</g>
<defs>
<linearGradient id="paint0_linear_223_4139" x1="100.5" y1="-531.999" x2="1586" y2="-506.499" gradientUnits="userSpaceOnUse">
<stop stop-color="#34D399"/>
<stop offset="1" stop-color="#34D399" stop-opacity="0"/>
</linearGradient>
<linearGradient id="paint1_linear_223_4139" x1="1579.5" y1="-531.999" x2="83" y2="-531.999" gradientUnits="userSpaceOnUse">
<stop stop-color="#A7F3D0"/>
<stop offset="1" stop-color="#A7F3D0" stop-opacity="0"/>
</linearGradient>
<linearGradient id="paint2_linear_223_4139" x1="1202" y1="260" x2="1202" y2="396" gradientUnits="userSpaceOnUse">
<stop stop-color="#60DDAE"/>
<stop offset="1" stop-color="#60DDAE" stop-opacity="0"/>
</linearGradient>
<linearGradient id="paint3_linear_223_4139" x1="1284.74" y1="274.74" x2="1284.74" y2="410.74" gradientUnits="userSpaceOnUse">
<stop stop-color="#60DDAE"/>
<stop offset="1" stop-color="#60DDAE" stop-opacity="0"/>
</linearGradient>
<clipPath id="clip0_223_4139">
<rect width="1500" height="1000" fill="white"/>
</clipPath>
</defs>
</svg>
