<svg width="1500" height="1000" viewBox="0 0 1500 1000" fill="none" xmlns="http://www.w3.org/2000/svg">
<g clip-path="url(#clip0_216_1835)">
<rect width="1500" height="1000" fill="white"/>
<path d="M0 1.43818e-05C0 1.43818e-05 1151.5 3.66711e-05 803 1.43818e-05C626 3.06117e-06 438 198.501 1151.5 500C1865 801.5 1500 1000 1500 1000H0V1.43818e-05Z" fill="url(#paint0_linear_216_1835)"/>
<path d="M0 1.43818e-05C0 1.43818e-05 1151.5 3.66711e-05 803 1.43818e-05C626 3.06117e-06 438 198.501 1151.5 500C1865 801.5 1500 1000 1500 1000H0V1.43818e-05Z" fill="url(#paint1_linear_216_1835)" fill-opacity="0.2"/>
</g>
<defs>
<linearGradient id="paint0_linear_216_1835" x1="17.5" y1="500" x2="1503" y2="525.5" gradientUnits="userSpaceOnUse">
<stop stop-color="#34D399"/>
<stop offset="1" stop-color="#34D399" stop-opacity="0"/>
</linearGradient>
<linearGradient id="paint1_linear_216_1835" x1="1496.5" y1="500" x2="-3.5422e-06" y2="500" gradientUnits="userSpaceOnUse">
<stop stop-color="#A7F3D0"/>
<stop offset="1" stop-color="#A7F3D0" stop-opacity="0"/>
</linearGradient>
<clipPath id="clip0_216_1835">
<rect width="1500" height="1000" fill="white"/>
</clipPath>
</defs>
</svg>
